<svg width="463" height="104" viewBox="0 0 463 104" fill="none" xmlns="http://www.w3.org/2000/svg">
<path d="M427.503 34.0151L426.134 37.0175L409.716 2.73641H412.452L427.503 34.0151ZM430.239 28.0102L428.833 31.0126L415.189 2.73641H417.925L430.239 28.0102ZM432.975 22.0433L431.607 25.0457L420.662 2.73641H423.398L432.975 22.0433ZM429.517 44.4666L449.318 2.73641H452.054L432.253 44.4666V65.6738H429.517V44.4666ZM434.99 44.4666L454.791 2.73641H457.527L437.726 44.4666V65.6738H434.99V44.4666ZM440.463 44.4666L460.263 2.73641H463L443.199 44.4666V65.6738H440.463V44.4666ZM425.412 41.5782L443.845 2.73641H446.581L426.781 44.4666V65.6738H424.044V44.4666L404.243 2.73641H406.98L425.412 41.5782Z" fill="white"/>
<path d="M352.046 23.5635C349.107 26.5026 347.638 30.0498 347.638 34.2051C347.638 38.3604 349.107 41.9076 352.046 44.8467C354.985 47.7858 358.533 49.2553 362.688 49.2553C366.843 49.2553 370.39 47.7858 373.329 44.8467C376.269 41.9076 377.738 38.3604 377.738 34.2051C377.738 30.0498 376.269 26.5026 373.329 23.5635C370.39 20.6244 366.843 19.1548 362.688 19.1548C358.533 19.1548 354.985 20.6244 352.046 23.5635ZM346.307 41.1221C345.37 38.9178 344.901 36.6121 344.901 34.2051C344.901 31.7981 345.37 29.5051 346.307 27.3261C347.245 25.1217 348.512 23.2215 350.108 21.6252C351.704 20.029 353.592 18.7621 355.771 17.8247C357.975 16.8872 360.281 16.4184 362.688 16.4184C365.095 16.4184 367.388 16.8872 369.567 17.8247C371.771 18.7621 373.672 20.029 375.268 21.6252C376.864 23.2215 378.131 25.1217 379.068 27.3261C380.006 29.5051 380.475 31.7981 380.475 34.2051C380.475 36.6121 380.006 38.9178 379.068 41.1221C378.131 43.3011 376.864 45.1887 375.268 46.785C373.672 48.3812 371.771 49.6481 369.567 50.5855C367.388 51.523 365.095 51.9917 362.688 51.9917C360.281 51.9917 357.975 51.523 355.771 50.5855C353.592 49.6481 351.704 48.3812 350.108 46.785C348.512 45.1887 347.245 43.3011 346.307 41.1221ZM344.901 23.9056C343.077 27.0474 342.165 30.4805 342.165 34.2051C342.165 37.9296 343.077 41.3628 344.901 44.5046C346.751 47.6464 349.247 50.1421 352.388 51.9917C355.53 53.816 358.963 54.7281 362.688 54.7281C366.412 54.7281 369.846 53.816 372.987 51.9917C376.129 50.1421 378.612 47.6464 380.437 44.5046C382.286 41.3628 383.211 37.9296 383.211 34.2051C383.211 30.4805 382.286 27.0474 380.437 23.9056C378.612 20.7638 376.129 18.2807 372.987 16.4564C369.846 14.6068 366.412 13.682 362.688 13.682C358.963 13.682 355.53 14.6068 352.388 16.4564C349.247 18.2807 346.751 20.7638 344.901 23.9056ZM342.545 45.8728C340.467 42.3003 339.428 38.411 339.428 34.2051C339.428 29.9991 340.467 26.1099 342.545 22.5374C344.623 18.9648 347.448 16.1397 351.02 14.0621C354.593 11.9844 358.482 10.9456 362.688 10.9456C366.894 10.9456 370.783 11.9844 374.356 14.0621C377.928 16.1397 380.753 18.9648 382.831 22.5374C384.909 26.1099 385.947 29.9991 385.947 34.2051C385.947 38.411 384.909 42.3003 382.831 45.8728C380.753 49.4454 377.928 52.2704 374.356 54.3481C370.783 56.4257 366.894 57.4645 362.688 57.4645C358.482 57.4645 354.593 56.4257 351.02 54.3481C347.448 52.2704 344.623 49.4454 342.545 45.8728ZM338.744 24.0956C337.376 27.3134 336.692 30.6832 336.692 34.2051C336.692 37.7269 337.376 41.0968 338.744 44.3146C340.113 47.5324 341.949 50.3068 344.255 52.6378C346.586 54.9435 349.361 56.7804 352.578 58.1487C355.796 59.5169 359.166 60.201 362.688 60.201C366.21 60.201 369.58 59.5169 372.797 58.1487C376.015 56.7804 378.777 54.9435 381.083 52.6378C383.414 50.3068 385.263 47.5324 386.631 44.3146C388 41.0968 388.684 37.7269 388.684 34.2051C388.684 30.6832 388 27.3134 386.631 24.0956C385.263 20.8778 383.414 18.116 381.083 15.8104C378.777 13.4793 376.015 11.6297 372.797 10.2615C369.58 8.89332 366.21 8.20922 362.688 8.20922C359.166 8.20922 355.796 8.89332 352.578 10.2615C349.361 11.6297 346.586 13.4793 344.255 15.8104C341.949 18.116 340.113 20.8778 338.744 24.0956ZM337.794 48.6092C335.235 44.2006 333.956 39.3992 333.956 34.2051C333.956 29.011 335.235 24.2096 337.794 19.8009C340.379 15.3923 343.875 11.9084 348.284 9.34939C352.692 6.76501 357.494 5.47281 362.688 5.47281C367.882 5.47281 372.683 6.76501 377.092 9.34939C381.501 11.9084 384.985 15.3923 387.544 19.8009C390.128 24.2096 391.42 29.011 391.42 34.2051C391.42 39.3992 390.128 44.2006 387.544 48.6092C384.985 53.0179 381.501 56.5144 377.092 59.0988C372.683 61.6578 367.882 62.9374 362.688 62.9374C357.494 62.9374 352.692 61.6578 348.284 59.0988C343.875 56.5144 340.379 53.0179 337.794 48.6092ZM333.69 22.0053C332.043 25.8819 331.219 29.9485 331.219 34.2051C331.219 38.4617 332.043 42.541 333.69 46.4429C335.362 50.3195 337.604 53.664 340.417 56.4764C343.229 59.2888 346.573 61.5312 350.45 63.2034C354.352 64.8503 358.431 65.6738 362.688 65.6738C366.945 65.6738 371.011 64.8503 374.888 63.2034C378.79 61.5312 382.147 59.2888 384.959 56.4764C387.772 53.664 390.001 50.3195 391.648 46.4429C393.32 42.541 394.157 38.4617 394.157 34.2051C394.157 29.9485 393.32 25.8819 391.648 22.0053C390.001 18.1034 387.772 14.7462 384.959 11.9338C382.147 9.12136 378.79 6.89169 374.888 5.24478C371.011 3.57253 366.945 2.73641 362.688 2.73641C358.431 2.73641 354.352 3.57253 350.45 5.24478C346.573 6.89169 343.229 9.12136 340.417 11.9338C337.604 14.7462 335.362 18.1034 333.69 22.0053ZM331.181 47.5071C329.382 43.2758 328.483 38.8418 328.483 34.2051C328.483 29.5684 329.382 25.1471 331.181 20.9411C333.005 16.7098 335.438 13.0739 338.478 10.0335C341.544 6.9677 345.18 4.53534 349.386 2.73641C353.617 0.912136 358.051 0 362.688 0C367.325 0 371.746 0.912136 375.952 2.73641C380.183 4.53534 383.819 6.9677 386.859 10.0335C389.925 13.0739 392.358 16.7098 394.157 20.9411C395.981 25.1471 396.893 29.5684 396.893 34.2051C396.893 38.8418 395.981 43.2758 394.157 47.5071C392.358 51.713 389.925 55.3489 386.859 58.4147C383.819 61.4551 380.183 63.8748 375.952 65.6738C371.746 67.498 367.325 68.4102 362.688 68.4102C358.051 68.4102 353.617 67.498 349.386 65.6738C345.18 63.8748 341.544 61.4551 338.478 58.4147C335.438 55.3489 333.005 51.713 331.181 47.5071Z" fill="white"/>
<path d="M316.04 2.73641H318.776V65.6738H316.04V2.73641ZM255.839 2.73641H258.575V65.6738H255.839V2.73641ZM310.567 2.73641H313.303V65.6738H310.567V2.73641ZM305.094 2.73641H307.831V65.6738H305.094V2.73641ZM299.621 2.73641H302.358V65.6738H299.621V41.0081H274.994V65.6738H272.257V2.73641H274.994V27.3261H299.621V2.73641ZM266.784 2.73641H269.521V65.6738H266.784V2.73641ZM261.312 2.73641H264.048V65.6738H261.312V2.73641ZM299.621 38.2717V35.5353H274.994V38.2717H299.621ZM299.621 32.7989V30.0625H274.994V32.7989H299.621Z" fill="white"/>
<path d="M224.241 27.3641H219.642C217.692 27.3641 216.285 26.87 215.424 25.8819C214.562 24.8684 214.132 23.5382 214.132 21.8913C214.132 18.2427 216.855 16.4184 222.303 16.4184C227.421 16.4184 231.272 17.1786 233.857 18.6988L231.652 20.371C229.879 19.5602 226.762 19.1548 222.303 19.1548C220.124 19.1548 218.654 19.3956 217.894 19.877C217.159 20.3584 216.792 21.0298 216.792 21.8913C216.792 22.7527 216.995 23.4242 217.4 23.9056C217.806 24.387 218.553 24.6277 219.642 24.6277H224.355C227.776 24.6277 230.854 25.2104 233.591 26.3759C236.352 27.5414 238.62 29.1377 240.394 31.1646C242.167 33.1663 243.523 35.4846 244.46 38.1197C245.398 40.7294 245.866 43.5291 245.866 46.5189C245.866 48.9513 245.524 51.257 244.84 53.4359C244.156 55.6149 243.117 57.6166 241.724 59.4408C240.356 61.2651 238.696 62.8487 236.745 64.1915C234.819 65.5091 232.514 66.5352 229.828 67.27C227.168 68.0301 224.279 68.4102 221.163 68.4102C216.273 68.4102 211.687 67.6627 207.405 66.1678C203.148 64.6983 199.601 62.6333 196.763 59.9729L198.967 58.3387C201.552 60.6697 204.782 62.4813 208.659 63.7735C212.561 65.0403 216.729 65.6738 221.163 65.6738C224.634 65.6738 227.763 65.1797 230.55 64.1915C233.363 63.1781 235.668 61.7972 237.467 60.0489C239.291 58.3007 240.685 56.2737 241.648 53.968C242.636 51.6624 243.13 49.1793 243.13 46.5189C243.13 42.9971 242.421 39.8173 241.002 36.9795C239.583 34.1164 237.416 31.7981 234.503 30.0245C231.614 28.2509 228.194 27.3641 224.241 27.3641ZM219.642 30.1005H223.975C229.119 30.1005 233.134 31.6714 236.023 34.8132C238.937 37.955 240.394 41.8569 240.394 46.5189C240.394 51.257 238.709 55.1842 235.339 58.3007C231.969 61.3918 227.244 62.9374 221.163 62.9374C217.109 62.9374 213.321 62.3799 209.799 61.2651C206.277 60.1503 203.351 58.5794 201.02 56.5524L203.148 54.8422C205.226 56.5397 207.835 57.8573 210.977 58.7947C214.144 59.7322 217.539 60.201 221.163 60.201C226.509 60.201 230.588 58.9214 233.401 56.3624C236.238 53.8033 237.657 50.5222 237.657 46.5189C237.657 42.5663 236.466 39.2978 234.085 36.7135C231.728 34.1291 228.346 32.8369 223.937 32.8369H219.642C215.943 32.8369 213.169 31.8234 211.319 29.7964C209.47 27.7695 208.545 25.1344 208.545 21.8913C208.545 18.6481 209.685 16.013 211.965 13.9861C214.271 11.9591 217.717 10.9456 222.303 10.9456C225.521 10.9456 228.51 11.3257 231.272 12.0858C234.034 12.8206 236.314 13.8847 238.113 15.2783L235.947 16.9505C232.78 14.7715 228.232 13.682 222.303 13.682C218.477 13.682 215.677 14.4421 213.904 15.9624C212.155 17.4573 211.281 19.4336 211.281 21.8913C211.281 24.3743 211.927 26.3633 213.22 27.8581C214.537 29.353 216.678 30.1005 219.642 30.1005ZM219.642 35.5733H223.823C227.522 35.5733 230.297 36.5994 232.146 38.6517C233.996 40.7041 234.921 43.3264 234.921 46.5189C234.921 49.7621 233.768 52.3971 231.462 54.4241C229.182 56.4511 225.749 57.4645 221.163 57.4645C217.945 57.4645 214.942 57.0972 212.155 56.3624C209.394 55.6023 207.113 54.5254 205.314 53.1319L207.481 51.4597C210.648 53.6386 215.208 54.7281 221.163 54.7281C224.989 54.7281 227.776 53.9807 229.524 52.4858C231.298 50.9656 232.184 48.9766 232.184 46.5189C232.184 44.0612 231.526 42.0849 230.208 40.59C228.891 39.0698 226.75 38.3097 223.785 38.3097H219.642C214.448 38.3097 210.382 36.7641 207.443 33.673C204.529 30.5565 203.072 26.6293 203.072 21.8913C203.072 17.1532 204.757 13.2386 208.127 10.1475C211.497 7.03105 216.222 5.47281 222.303 5.47281C226.357 5.47281 230.132 6.03023 233.629 7.14506C237.15 8.2599 240.077 9.8308 242.408 11.8578L240.28 13.568C238.202 11.8704 235.592 10.5529 232.45 9.61543C229.309 8.67796 225.926 8.20922 222.303 8.20922C216.957 8.20922 212.865 9.48874 210.027 12.0478C207.215 14.6068 205.808 17.888 205.808 21.8913C205.808 25.8692 206.999 29.1503 209.381 31.7347C211.763 34.2938 215.183 35.5733 219.642 35.5733ZM219.642 41.0461H223.823C225.774 41.0461 227.18 41.5528 228.042 42.5663C228.903 43.5798 229.334 44.8973 229.334 46.5189C229.334 50.1675 226.61 51.9917 221.163 51.9917C216.019 51.9917 212.155 51.2316 209.571 49.7114L211.775 48.0391C213.549 48.8499 216.678 49.2553 221.163 49.2553C223.342 49.2553 224.799 49.0146 225.533 48.5332C226.293 48.0518 226.674 47.3804 226.674 46.5189C226.674 45.6828 226.458 45.024 226.027 44.5426C225.622 44.0359 224.862 43.7825 223.747 43.7825H219.642C216.146 43.7825 212.979 43.2124 210.141 42.0723C207.329 40.9321 205.01 39.3612 203.186 37.3596C201.387 35.3579 200.006 33.0396 199.043 30.4045C198.081 27.7695 197.599 24.9317 197.599 21.8913C197.599 19.4589 197.941 17.1532 198.625 14.9742C199.309 12.7952 200.336 10.7936 201.704 8.96933C203.097 7.14506 204.757 5.57416 206.683 4.25663C208.633 2.91377 210.939 1.87495 213.6 1.14017C216.285 0.380057 219.186 0 222.303 0C227.193 0 231.766 0.747445 236.023 2.24233C240.28 3.71189 243.827 5.77686 246.664 8.43726L244.46 10.0715C241.876 7.74048 238.645 5.94155 234.769 4.6747C230.892 3.3825 226.737 2.73641 222.303 2.73641C218.832 2.73641 215.69 3.24315 212.877 4.25663C210.09 5.24478 207.785 6.61298 205.96 8.36124C204.161 10.1095 202.768 12.1365 201.78 14.4421C200.817 16.7478 200.336 19.2309 200.336 21.8913C200.336 25.4638 201.058 28.6816 202.502 31.5447C203.946 34.4078 206.15 36.7135 209.115 38.4617C212.079 40.1846 215.589 41.0461 219.642 41.0461Z" fill="white"/>
<path d="M147.796 2.73641H150.533V65.6738H147.796V2.73641ZM164.215 2.73641H166.951V51.9917H188.842V54.7281H166.951V57.4646H188.842V60.201H166.951V62.9374H188.842V65.6738H164.215V2.73641ZM158.742 2.73641H161.478V65.6738H158.742V2.73641ZM153.269 2.73641H156.005V65.6738H153.269V2.73641Z" fill="white"/>
<path d="M98.1837 47.203L99.2859 44.4666H108.635L109.737 47.203H98.1837ZM96.0554 52.6758L97.1196 49.9394H110.764L111.942 52.6758H96.0554ZM93.9271 58.1487L94.9913 55.4122H112.93L114.07 58.1487H93.9271ZM71.6938 65.6738H68.7294L93.6231 2.73641H96.5875L121.443 65.6738H118.517L95.1053 6.42296L71.6938 65.6738ZM95.4473 12.9219L97.0056 16.4184L77.5467 65.6738H74.6202L95.4473 12.9219ZM98.4878 20.143L99.932 23.9056L83.4756 65.6738H80.5111L98.4878 20.143ZM101.376 27.6681L102.82 31.5067L89.3284 65.6738H86.402L101.376 27.6681ZM139.116 65.6738H136.151L111.296 2.73641H114.222L139.116 65.6738ZM108.331 2.73641L133.225 65.6738H130.299L105.405 2.73641H108.331ZM102.44 2.73641L127.334 65.6738H124.37L99.5139 2.73641H102.44Z" fill="white"/>
<path d="M41.8062 43.7445C41.8062 42.7564 41.5022 42.0976 40.8941 41.7682C40.3113 41.4388 39.4499 41.2741 38.3097 41.2741H20.6751V38.5377H38.3097C42.465 38.5377 44.5426 40.2733 44.5426 43.7445C44.5426 45.6955 43.9725 47.1017 42.8324 47.9631C41.6922 48.8246 40.1846 49.2553 38.3097 49.2553H20.6751V46.5189H38.3097C40.6407 46.5189 41.8062 45.5941 41.8062 43.7445ZM19.1548 65.6738H16.4184V19.1549H38.3097C40.0326 19.1549 41.5022 19.6869 42.7184 20.7511C43.9345 21.7899 44.5426 23.0948 44.5426 24.6657C44.5426 26.7433 43.9725 28.2509 42.8324 29.1883C41.6922 30.1005 40.1846 30.5566 38.3097 30.5566H20.6751V27.8201H38.3097C40.6407 27.8201 41.8062 26.7687 41.8062 24.6657C41.8062 23.8042 41.4768 23.1328 40.8181 22.6514C40.1593 22.1446 39.3232 21.8913 38.3097 21.8913H19.1548V65.6738ZM20.6751 33.293H38.3097C40.8181 33.293 42.9337 32.5455 44.6566 31.0506C46.4049 29.5304 47.279 27.4021 47.279 24.6657C47.279 22.4613 46.3669 20.5357 44.5426 18.8888C42.7437 17.2419 40.666 16.4184 38.3097 16.4184H13.682V65.6738H10.9456V13.682H38.3097C41.4262 13.682 44.1499 14.7842 46.4809 16.9885C48.8373 19.1675 50.0154 21.7266 50.0154 24.6657C50.0154 26.9714 49.4707 28.9857 48.3812 30.7086C47.317 32.4315 45.8728 33.7617 44.0486 34.6992C48.0265 36.118 50.0154 39.0065 50.0154 43.3645C50.0154 46.8103 48.8753 49.572 46.5949 51.6497C44.3146 53.702 41.5528 54.7281 38.3097 54.7281H20.6751V51.9917H38.3097C40.8181 51.9917 42.9337 51.2443 44.6566 49.7494C46.4049 48.2292 47.279 46.1009 47.279 43.3645C47.279 41.5148 46.6203 39.8806 45.3027 38.4617C43.9852 37.0428 42.0469 36.2194 39.4879 35.9914C39.2345 36.0167 38.8418 36.0294 38.3097 36.0294H20.6751V33.293ZM55.4883 24.6657C55.4883 28.2129 54.2341 31.418 51.7257 34.2811C54.2341 37.0682 55.4883 40.096 55.4883 43.3645C55.4883 46.5316 54.6901 49.42 53.0939 52.0297C51.523 54.6141 49.42 56.6284 46.785 58.0726C44.1752 59.4915 41.3502 60.201 38.3097 60.201H20.6751V57.4646H38.3097C42.2623 57.4646 45.6575 56.147 48.4952 53.512C51.333 50.8516 52.7518 47.4691 52.7518 43.3645C52.7518 41.8949 52.3718 40.2733 51.6117 38.4997C50.8769 36.7008 49.8507 35.3326 48.5332 34.3951C51.3456 31.7601 52.7518 28.5169 52.7518 24.6657C52.7518 20.9665 51.3076 17.7613 48.4192 15.0502C45.5308 12.3138 42.1609 10.9456 38.3097 10.9456H8.20922V65.6738H5.47281V8.20923H38.3097C41.3248 8.20923 44.1499 8.95667 46.785 10.4516C49.4454 11.9211 51.561 13.9354 53.1319 16.4945C54.7028 19.0282 55.4883 21.7519 55.4883 24.6657ZM54.8422 34.4331C57.0972 31.418 58.2247 28.1622 58.2247 24.6657C58.2247 21.2452 57.3125 18.0654 55.4883 15.1263C53.6893 12.1618 51.257 9.81813 48.1912 8.09521C45.1254 6.34695 41.8316 5.47282 38.3097 5.47282H2.73641V65.6738H0V2.73641H38.3097C42.313 2.73641 46.0502 3.72456 49.5214 5.70085C53.0179 7.67715 55.7923 10.3629 57.8446 13.7581C59.9222 17.1279 60.9611 20.7638 60.9611 24.6657C60.9611 28.3902 59.9096 31.6587 57.8066 34.4711C59.9096 37.3849 60.9611 40.3493 60.9611 43.3645C60.9611 46.7596 60.353 49.8761 59.1368 52.7138C57.9206 55.5263 56.2737 57.8699 54.1961 59.7449C52.1438 61.6198 49.7494 63.0767 47.013 64.1155C44.2766 65.1544 41.3755 65.6738 38.3097 65.6738H20.6751V62.9374H38.3097C40.9701 62.9374 43.5165 62.4433 45.9488 61.4551C48.3812 60.4417 50.4968 59.0735 52.2958 57.3505C54.0947 55.6276 55.5263 53.55 56.5904 51.1176C57.6799 48.6852 58.2247 46.1009 58.2247 43.3645C58.2247 42.1483 57.9333 40.6914 57.3505 38.9938C56.7931 37.2709 55.957 35.7507 54.8422 34.4331Z" fill="white"/>
<path d="M448.277 103.527V80.3503H452.01V89.7162H454.608L458.699 80.3503H462.761L457.893 91.4623L463 103.527H458.849L454.548 93.3355H452.01V103.527H448.277Z" fill="white"/>
<path d="M430.369 103.527V80.3503H437.268C438.722 80.3503 439.976 80.6361 441.031 81.2075C442.106 81.779 442.942 82.5833 443.54 83.6204C444.137 84.6364 444.436 85.8428 444.436 87.2398C444.436 88.7637 444.067 90.1077 443.331 91.2718C442.614 92.4359 441.638 93.2614 440.404 93.7482L444.734 103.527H440.553L436.76 94.3197H434.102V103.527H430.369ZM434.102 90.8274H437.268C438.323 90.8274 439.15 90.5204 439.747 89.9066C440.344 89.2928 440.643 88.4462 440.643 87.3668C440.643 86.2661 440.344 85.4089 439.747 84.7951C439.15 84.1602 438.323 83.8427 437.268 83.8427H434.102V90.8274Z" fill="white"/>
<path d="M419.152 103.844C417.758 103.844 416.544 103.569 415.509 103.019C414.493 102.447 413.707 101.654 413.149 100.638C412.612 99.6006 412.343 98.3835 412.343 96.9866V86.8905C412.343 85.4936 412.612 84.2872 413.149 83.2712C413.707 82.2341 414.493 81.4404 415.509 80.8901C416.544 80.3186 417.758 80.0329 419.152 80.0329C420.566 80.0329 421.78 80.3186 422.796 80.8901C423.811 81.4404 424.587 82.2341 425.125 83.2712C425.682 84.2872 425.961 85.483 425.961 86.8588V96.9866C425.961 98.3835 425.682 99.6006 425.125 100.638C424.587 101.654 423.811 102.447 422.796 103.019C421.78 103.569 420.566 103.844 419.152 103.844ZM419.152 100.352C420.167 100.352 420.934 100.066 421.452 99.4947C421.969 98.9021 422.228 98.066 422.228 96.9866V86.8905C422.228 85.7899 421.969 84.9539 421.452 84.3824C420.934 83.8109 420.167 83.5252 419.152 83.5252C418.137 83.5252 417.37 83.8109 416.852 84.3824C416.335 84.9539 416.076 85.7899 416.076 86.8905V96.9866C416.076 98.066 416.335 98.9021 416.852 99.4947C417.39 100.066 418.157 100.352 419.152 100.352Z" fill="white"/>
<path d="M395.003 103.527L392.763 80.3503H395.989L397.303 96.5421C397.342 96.9019 397.372 97.3464 397.392 97.8755C397.432 98.3835 397.462 98.9021 397.482 99.4312C397.522 99.9604 397.542 100.426 397.542 100.828C397.581 100.426 397.621 99.9604 397.661 99.4312C397.701 98.9021 397.741 98.3835 397.78 97.8755C397.84 97.3464 397.89 96.9019 397.93 96.5421L399.722 80.3503H402.857L404.53 96.5421C404.59 96.9019 404.639 97.3464 404.679 97.8755C404.739 98.3835 404.799 98.9021 404.858 99.4312C404.918 99.9604 404.968 100.426 405.008 100.828C405.028 100.426 405.048 99.9604 405.067 99.4312C405.087 98.9021 405.107 98.3835 405.127 97.8755C405.167 97.3464 405.207 96.9019 405.247 96.5421L406.531 80.3503H409.726L407.367 103.527H403.246L401.633 87.2715C401.593 86.8694 401.543 86.4037 401.484 85.8746C401.444 85.3243 401.404 84.7845 401.364 84.2554C401.324 83.7051 401.295 83.2394 401.275 82.8585C401.255 83.2394 401.215 83.7051 401.155 84.2554C401.115 84.7845 401.076 85.3243 401.036 85.8746C400.996 86.4037 400.956 86.8694 400.916 87.2715L399.154 103.527H395.003Z" fill="white"/>
<path d="M381.456 103.527V84.0332H375.752V80.3503H390.923V84.0332H385.219V103.527H381.456Z" fill="white"/>
<path d="M359.099 103.527V80.3503H372.18V83.8109H362.772V89.8431H371.135V93.272H362.772V100.066H372.18V103.527H359.099Z" fill="white"/>
<path d="M340.714 103.527V80.3503H345.283L351.346 99.082C351.286 98.4047 351.217 97.611 351.137 96.7008C351.077 95.7695 351.027 94.8277 350.988 93.8752C350.948 92.9016 350.928 92.055 350.928 91.3353V80.3503H354.332V103.527H349.763L343.76 84.7951C343.8 85.4089 343.85 86.1497 343.91 87.0175C343.969 87.8853 344.019 88.7743 344.059 89.6844C344.099 90.5945 344.119 91.4306 344.119 92.1925V103.527H340.714Z" fill="white"/>
<path d="M305.378 103.527V80.3503H318.458V83.8109H309.051V89.8431H317.413V93.272H309.051V100.066H318.458V103.527H305.378Z" fill="white"/>
<path d="M286.993 103.527V80.3503H291.562L297.625 99.082C297.565 98.4047 297.495 97.611 297.415 96.7008C297.356 95.7695 297.306 94.8277 297.266 93.8752C297.226 92.9016 297.206 92.055 297.206 91.3353V80.3503H300.611V103.527H296.042L290.039 84.7951C290.079 85.4089 290.128 86.1497 290.188 87.0175C290.248 87.8853 290.298 88.7743 290.338 89.6844C290.377 90.5945 290.397 91.4306 290.397 92.1925V103.527H286.993Z" fill="white"/>
<path d="M269.623 103.527V100.034H274.013V83.8427H269.623V80.3503H282.166V83.8427H277.776V100.034H282.166V103.527H269.623Z" fill="white"/>
<path d="M251.328 103.527V80.3503H255.061V89.6527H260.914V80.3503H264.647V103.527H260.914V93.3355H255.061V103.527H251.328Z" fill="white"/>
<path d="M240.2 103.844C238.806 103.844 237.582 103.569 236.526 103.019C235.491 102.447 234.685 101.654 234.107 100.638C233.55 99.6006 233.271 98.3835 233.271 96.9866V86.8905C233.271 85.4724 233.55 84.2554 234.107 83.2395C234.685 82.2235 235.491 81.4404 236.526 80.8901C237.582 80.3186 238.806 80.0329 240.2 80.0329C241.613 80.0329 242.828 80.3186 243.843 80.8901C244.879 81.4404 245.685 82.2235 246.262 83.2395C246.84 84.2554 247.128 85.4724 247.128 86.8905H243.365C243.365 85.7899 243.087 84.9539 242.529 84.3824C241.992 83.8109 241.215 83.5252 240.2 83.5252C239.184 83.5252 238.398 83.8109 237.84 84.3824C237.283 84.9539 237.004 85.7793 237.004 86.8588V96.9866C237.004 98.066 237.283 98.9021 237.84 99.4947C238.398 100.066 239.184 100.352 240.2 100.352C241.215 100.352 241.992 100.066 242.529 99.4947C243.087 98.9021 243.365 98.066 243.365 96.9866H247.128C247.128 98.3624 246.84 99.5688 246.262 100.606C245.685 101.643 244.879 102.447 243.843 103.019C242.828 103.569 241.613 103.844 240.2 103.844Z" fill="white"/>
<path d="M214.259 103.527L219.754 80.3503H224.562L230.087 103.527H226.265L225.07 97.9073H219.276L218.082 103.527H214.259ZM219.963 94.6689H224.383L223.069 88.4462C222.85 87.4091 222.661 86.4778 222.502 85.6523C222.342 84.8057 222.233 84.1919 222.173 83.8109C222.113 84.1919 222.004 84.8057 221.845 85.6523C221.705 86.4778 221.516 87.3985 221.277 88.4145L219.963 94.6689Z" fill="white"/>
<path d="M196.979 103.527V80.3503H201.399L203.519 87.716C203.738 88.4568 203.917 89.1341 204.057 89.7479C204.196 90.3617 204.286 90.8062 204.326 91.0813C204.365 90.8062 204.455 90.3617 204.594 89.7479C204.734 89.1341 204.903 88.4568 205.102 87.716L207.133 80.3503H211.553V103.527H208.059V96.3199C208.059 95.2616 208.089 94.108 208.148 92.8593C208.208 91.6105 208.278 90.3617 208.357 89.1129C208.437 87.8642 208.527 86.6789 208.626 85.5571C208.746 84.4353 208.845 83.4511 208.925 82.6045L205.998 93.5577H202.593L199.577 82.6045C199.677 83.4088 199.776 84.3612 199.876 85.4618C199.975 86.5413 200.065 87.7054 200.145 88.9542C200.244 90.1818 200.324 91.4306 200.383 92.7005C200.443 93.9705 200.473 95.1769 200.473 96.3199V103.527H196.979Z" fill="white"/>
<path d="M168.452 103.844C167.058 103.844 165.843 103.569 164.808 103.019C163.793 102.447 163.006 101.654 162.449 100.638C161.911 99.6006 161.642 98.3835 161.642 96.9866V86.8905C161.642 85.4936 161.911 84.2872 162.449 83.2712C163.006 82.2341 163.793 81.4404 164.808 80.8901C165.843 80.3186 167.058 80.0329 168.452 80.0329C169.865 80.0329 171.08 80.3186 172.095 80.8901C173.111 81.4404 173.887 82.2341 174.425 83.2712C174.982 84.2872 175.261 85.483 175.261 86.8588V96.9866C175.261 98.3835 174.982 99.6006 174.425 100.638C173.887 101.654 173.111 102.447 172.095 103.019C171.08 103.569 169.865 103.844 168.452 103.844ZM168.452 100.352C169.467 100.352 170.234 100.066 170.751 99.4947C171.269 98.9021 171.528 98.066 171.528 96.9866V86.8905C171.528 85.7899 171.269 84.9539 170.751 84.3824C170.234 83.8109 169.467 83.5252 168.452 83.5252C167.436 83.5252 166.67 83.8109 166.152 84.3824C165.634 84.9539 165.376 85.7899 165.376 86.8905V96.9866C165.376 98.066 165.634 98.9021 166.152 99.4947C166.69 100.066 167.456 100.352 168.452 100.352Z" fill="white"/>
<path d="M148.663 103.527V84.0332H142.959V80.3503H158.13V84.0332H152.426V103.527H148.663Z" fill="white"/>
<path d="M108.399 103.527V80.3503H121.479V83.8109H112.072V89.8431H120.434V93.272H112.072V100.066H121.479V103.527H108.399Z" fill="white"/>
<path d="M90.0137 103.527V80.3503H94.583L100.646 99.082C100.586 98.4047 100.516 97.611 100.436 96.7008C100.377 95.7695 100.327 94.8277 100.287 93.8752C100.247 92.9016 100.227 92.055 100.227 91.3353V80.3503H103.632V103.527H99.0627L93.0599 84.7951C93.0997 85.4089 93.1495 86.1497 93.2092 87.0175C93.2689 87.8853 93.3187 88.7743 93.3585 89.6844C93.3983 90.5945 93.4183 91.4306 93.4183 92.1925V103.527H90.0137Z" fill="white"/>
<path d="M72.644 103.527V100.034H77.0342V83.8427H72.644V80.3503H85.1872V83.8427H80.7971V100.034H85.1872V103.527H72.644Z" fill="white"/>
<path d="M54.3488 103.527V80.3503H58.0818V89.6527H63.9353V80.3503H67.6684V103.527H63.9353V93.3355H58.0818V103.527H54.3488Z" fill="white"/>
<path d="M43.2209 103.844C41.8272 103.844 40.6027 103.569 39.5475 103.019C38.5122 102.447 37.7058 101.654 37.1284 100.638C36.571 99.6006 36.2922 98.3835 36.2922 96.9866V86.8905C36.2922 85.4724 36.571 84.2554 37.1284 83.2395C37.7058 82.2235 38.5122 81.4404 39.5475 80.8901C40.6027 80.3186 41.8272 80.0329 43.2209 80.0329C44.6345 80.0329 45.8489 80.3186 46.8644 80.8901C47.8997 81.4404 48.706 82.2235 49.2834 83.2395C49.8608 84.2554 50.1495 85.4724 50.1495 86.8905H46.3865C46.3865 85.7899 46.1078 84.9539 45.5503 84.3824C45.0127 83.8109 44.2363 83.5252 43.2209 83.5252C42.2055 83.5252 41.419 83.8109 40.8615 84.3824C40.3041 84.9539 40.0253 85.7793 40.0253 86.8588V96.9866C40.0253 98.066 40.3041 98.9021 40.8615 99.4947C41.419 100.066 42.2055 100.352 43.2209 100.352C44.2363 100.352 45.0127 100.066 45.5503 99.4947C46.1078 98.9021 46.3865 98.066 46.3865 96.9866H50.1495C50.1495 98.3624 49.8608 99.5688 49.2834 100.606C48.706 101.643 47.8997 102.447 46.8644 103.019C45.8489 103.569 44.6345 103.844 43.2209 103.844Z" fill="white"/>
<path d="M17.28 103.527L22.7751 80.3503H27.5834L33.1083 103.527H29.2857L28.0911 97.9073H22.2973L21.1027 103.527H17.28ZM22.9842 94.6689H27.4042L26.0901 88.4462C25.8711 87.4091 25.682 86.4778 25.5227 85.6523C25.3634 84.8057 25.2539 84.1919 25.1942 83.8109C25.1345 84.1919 25.025 84.8057 24.8657 85.6523C24.7263 86.4778 24.5372 87.3985 24.2982 88.4145L22.9842 94.6689Z" fill="white"/>
<path d="M0 103.527V80.3503H4.41998L6.54038 87.716C6.75939 88.4568 6.93857 89.1341 7.07794 89.7479C7.21731 90.3617 7.30691 90.8062 7.34672 91.0813C7.38654 90.8062 7.47614 90.3617 7.61551 89.7479C7.75488 89.1341 7.92411 88.4568 8.12321 87.716L10.154 80.3503H14.574V103.527H11.0798V96.3199C11.0798 95.2616 11.1097 94.108 11.1694 92.8593C11.2291 91.6105 11.2988 90.3617 11.3785 89.1129C11.4581 87.8642 11.5477 86.6789 11.6472 85.5571C11.7667 84.4353 11.8663 83.4511 11.9459 82.6045L9.01915 93.5577H5.61457L2.59823 82.6045C2.69778 83.4088 2.79733 84.3612 2.89688 85.4618C2.99643 86.5413 3.08602 87.7054 3.16566 88.9542C3.26521 90.1818 3.34485 91.4306 3.40458 92.7005C3.46431 93.9705 3.49417 95.1769 3.49417 96.3199V103.527H0Z" fill="white"/>
</svg>
