<svg xmlns="http://www.w3.org/2000/svg" version="1.1" xmlns:xlink="http://www.w3.org/1999/xlink" width="100" height="100"><svg width="100" height="100" viewBox="0 0 100 100" fill="none" xmlns="http://www.w3.org/2000/svg">
<path d="M34.4444 34.4444C30.1481 38.7407 28 43.9259 28 50C28 56.0741 30.1481 61.2593 34.4444 65.5556C38.7407 69.8519 43.9259 72 50 72C56.0741 72 61.2593 69.8519 65.5556 65.5556C69.8519 61.2593 72 56.0741 72 50C72 43.9259 69.8519 38.7407 65.5556 34.4444C61.2593 30.1481 56.0741 28 50 28C43.9259 28 38.7407 30.1481 34.4444 34.4444ZM26.0556 60.1111C24.6852 56.8889 24 53.5185 24 50C24 46.4815 24.6852 43.1296 26.0556 39.9444C27.4259 36.7222 29.2778 33.9444 31.6111 31.6111C33.9444 29.2778 36.7037 27.4259 39.8889 26.0556C43.1111 24.6852 46.4815 24 50 24C53.5185 24 56.8704 24.6852 60.0556 26.0556C63.2778 27.4259 66.0556 29.2778 68.3889 31.6111C70.7222 33.9444 72.5741 36.7222 73.9444 39.9444C75.3148 43.1296 76 46.4815 76 50C76 53.5185 75.3148 56.8889 73.9444 60.1111C72.5741 63.2963 70.7222 66.0556 68.3889 68.3889C66.0556 70.7222 63.2778 72.5741 60.0556 73.9444C56.8704 75.3148 53.5185 76 50 76C46.4815 76 43.1111 75.3148 39.8889 73.9444C36.7037 72.5741 33.9444 70.7222 31.6111 68.3889C29.2778 66.0556 27.4259 63.2963 26.0556 60.1111ZM24 34.9444C21.3333 39.537 20 44.5556 20 50C20 55.4444 21.3333 60.463 24 65.0556C26.7037 69.6481 30.3519 73.2963 34.9444 76C39.537 78.6667 44.5556 80 50 80C55.4444 80 60.463 78.6667 65.0556 76C69.6481 73.2963 73.2778 69.6481 75.9444 65.0556C78.6481 60.463 80 55.4444 80 50C80 44.5556 78.6481 39.537 75.9444 34.9444C73.2778 30.3519 69.6481 26.7222 65.0556 24.0556C60.463 21.3519 55.4444 20 50 20C44.5556 20 39.537 21.3519 34.9444 24.0556C30.3519 26.7222 26.7037 30.3519 24 34.9444ZM20.5556 67.0556C17.5185 61.8333 16 56.1481 16 50C16 43.8519 17.5185 38.1667 20.5556 32.9444C23.5926 27.7222 27.7222 23.5926 32.9444 20.5556C38.1667 17.5185 43.8519 16 50 16C56.1481 16 61.8333 17.5185 67.0556 20.5556C72.2778 23.5926 76.4074 27.7222 79.4444 32.9444C82.4815 38.1667 84 43.8519 84 50C84 56.1481 82.4815 61.8333 79.4444 67.0556C76.4074 72.2778 72.2778 76.4074 67.0556 79.4444C61.8333 82.4815 56.1481 84 50 84C43.8519 84 38.1667 82.4815 32.9444 79.4444C27.7222 76.4074 23.5926 72.2778 20.5556 67.0556ZM15 35.2222C13 39.9259 12 44.8519 12 50C12 55.1481 13 60.0741 15 64.7778C17 69.4815 19.6852 73.537 23.0556 76.9444C26.463 80.3148 30.5185 83 35.2222 85C39.9259 87 44.8519 88 50 88C55.1481 88 60.0741 87 64.7778 85C69.4815 83 73.5185 80.3148 76.8889 76.9444C80.2963 73.537 83 69.4815 85 64.7778C87 60.0741 88 55.1481 88 50C88 44.8519 87 39.9259 85 35.2222C83 30.5185 80.2963 26.4815 76.8889 23.1111C73.5185 19.7037 69.4815 17 64.7778 15C60.0741 13 55.1481 12 50 12C44.8519 12 39.9259 13 35.2222 15C30.5185 17 26.463 19.7037 23.0556 23.1111C19.6852 26.4815 17 30.5185 15 35.2222ZM13.6111 71.0556C9.87037 64.6111 8 57.5926 8 50C8 42.4074 9.87037 35.3889 13.6111 28.9444C17.3889 22.5 22.5 17.4074 28.9444 13.6667C35.3889 9.88889 42.4074 8 50 8C57.5926 8 64.6111 9.88889 71.0556 13.6667C77.5 17.4074 82.5926 22.5 86.3333 28.9444C90.1111 35.3889 92 42.4074 92 50C92 57.5926 90.1111 64.6111 86.3333 71.0556C82.5926 77.5 77.5 82.6111 71.0556 86.3889C64.6111 90.1296 57.5926 92 50 92C42.4074 92 35.3889 90.1296 28.9444 86.3889C22.5 82.6111 17.3889 77.5 13.6111 71.0556ZM7.61111 32.1667C5.2037 37.8333 4 43.7778 4 50C4 56.2222 5.2037 62.1852 7.61111 67.8889C10.0556 73.5556 13.3333 78.4444 17.4444 82.5556C21.5556 86.6667 26.4444 89.9444 32.1111 92.3889C37.8148 94.7963 43.7778 96 50 96C56.2222 96 62.1667 94.7963 67.8333 92.3889C73.537 89.9444 78.4444 86.6667 82.5556 82.5556C86.6667 78.4444 89.9259 73.5556 92.3333 67.8889C94.7778 62.1852 96 56.2222 96 50C96 43.7778 94.7778 37.8333 92.3333 32.1667C89.9259 26.463 86.6667 21.5556 82.5556 17.4444C78.4444 13.3333 73.537 10.0741 67.8333 7.66667C62.1667 5.22222 56.2222 4 50 4C43.7778 4 37.8148 5.22222 32.1111 7.66667C26.4444 10.0741 21.5556 13.3333 17.4444 17.4444C13.3333 21.5556 10.0556 26.463 7.61111 32.1667ZM3.94444 69.4444C1.31481 63.2593 0 56.7778 0 50C0 43.2222 1.31481 36.7593 3.94444 30.6111C6.61111 24.4259 10.1667 19.1111 14.6111 14.6667C19.0926 10.1852 24.4074 6.62963 30.5556 4C36.7407 1.33333 43.2222 0 50 0C56.7778 0 63.2407 1.33333 69.3889 4C75.5741 6.62963 80.8889 10.1852 85.3333 14.6667C89.8148 19.1111 93.3704 24.4259 96 30.6111C98.6667 36.7593 100 43.2222 100 50C100 56.7778 98.6667 63.2593 96 69.4444C93.3704 75.5926 89.8148 80.9074 85.3333 85.3889C80.8889 89.8333 75.5741 93.3704 69.3889 96C63.2407 98.6667 56.7778 100 50 100C43.2222 100 36.7407 98.6667 30.5556 96C24.4074 93.3704 19.0926 89.8333 14.6111 85.3889C10.1667 80.9074 6.61111 75.5926 3.94444 69.4444Z" fill="#BA1D2C"></path>
</svg><style>@media (prefers-color-scheme: light) { :root { filter: none; } }
@media (prefers-color-scheme: dark) { :root { filter: none; } }
</style></svg>